# xmcd
#
# Track frame offsets: 
#        150
#        22860
#        51356
#        79738
#        105153
#        131975
#        155943
#        178669
#        205454
#        231704
#
# Disc length: 3407 seconds
#
# Revision: 0
# Processed by: cddbd v1.5.2PL0 Copyright (c) Steve Scherf et al.
# Submitted via: ExactAudioCopy v1.0b3
#
DISCID=8c0d4d0a
DTITLE=Manh Quynh - Ru Em
DYEAR=1998
DGENRE=
TTITLE0=Ru em
TTITLE1=Ve lai doi sim
TTITLE2=Chut nang mong manh
TTITLE3=Buon ga nho
TTITLE4=Nguoi con do ta con day
TTITLE5=Viet dong tam su
TTITLE6=Cuoi neo duong tinh
TTITLE7=Sao danh xa anh
TTITLE8=Tinh em ngay do
TTITLE9=Buon theo buoc em
EXTD=
EXTT0=
EXTT1=
EXTT2=
EXTT3=
EXTT4=
EXTT5=
EXTT6=
EXTT7=
EXTT8=
EXTT9=
PLAYORDER=
